<?xml version="1.0" standalone="no"?> <!DOCTYPE svg PUBLIC "-//W3C//DTD SVG 1.0//EN" "http://www.w3.org/TR/2001/REC-SVG-20010904/DTD/svg10.dtd" > <svg xmlns="http://www.w3.org/2000/svg" width="100%" height="100%">
<defs >
<font id="helveticaneueultralight" horiz-adv-x="395" ><font-face
    font-family="Helvetica Neue"
    units-per-em="1000"
    panose-1="2 0 2 6 0 0 0 2 0 4"
    ascent="931"
    descent="-213"
    alphabetic="0" />
<missing-glyph horiz-adv-x="500" d="M442 8H58V504H442V8ZM50 512V0H450V512H50Z" />
<glyph unicode=" " glyph-name="space" horiz-adv-x="278" />
<glyph unicode="!" glyph-name="exclam" horiz-adv-x="185" d="M83 182H103V714H83V182ZM83 0H103V98H83V0Z" />
<glyph unicode="&quot;" glyph-name="quotedbl" horiz-adv-x="278" d="M205 489V714H185V489H205ZM93 489V714H73V489H93Z" />
<glyph unicode="#" glyph-name="numbersign" horiz-adv-x="556" d="M185 249L209 426H380L356 249H185ZM245 680H225L194 446H63V426H189L165 249H35V229H160L129 0H149L180 229H352L321 0H341L372 229H493V249H376L400 426H521V446H405L436 680H416L385 446H214L245
680Z" />
<glyph unicode="$" glyph-name="dollar" horiz-adv-x="556" d="M285 3V355Q325 346 366 336T440 308T495 258T517 176Q517 130 497 97T443 43T369 13T285 3ZM26 237H6Q5 172 24 126T77 48T160 2T265 -15V-104H285V-16Q331 -16 376 -6T457 28T515 88T537 175Q537
231 518 264T465 317T388 349T293 374L285 376V710Q331 709 370 698T438 664T484 604T503 514H523Q520 572 502 612T452 678T378 716T285 730V774H265V731Q223 731 181 722T104 692T49 635T27 547Q27 495 48 463T103 412T179 381T265 360V4Q212 6 168 19T93 61T44
132T26 237ZM265 711V381Q223 390 184 400T114 428T65 474T47 547Q47 594 67 625T118 676T189 703T265 711Z" />
<glyph unicode="%" glyph-name="percent" horiz-adv-x="685" d="M564 714L88 -33H111L587 714H564ZM357 157Q357 124 366 94T393 40T441 3T509 -11Q547 -11 575 2T624 39T654 92T664 158Q664 233 625 281T509 330Q473 330 445 317T397 281T367 227T357 157ZM41
519Q41 585 72 628T173 672Q242 672 275 630T308 519Q308 489 300 462T274 415T232 382T173 370Q140 370 115 382T74 414T49 461T41 519ZM21 519Q21 486 30 456T57 402T105 364T173 350Q211 350 239 363T288 400T318 455T328 520Q328 595 289 643T173 692Q137 692
109 679T61 643T31 589T21 519ZM377 157Q377 223 408 266T509 310Q578 310 611 268T644 157Q644 127 636 100T610 53T568 20T509 8Q476 8 451 20T410 52T385 99T377 157Z" />
<glyph unicode="&amp;" glyph-name="ampersand" horiz-adv-x="574" d="M572 0L467 133Q482 167 490 199T497 277H477Q479 237 471 205T453 151L265 389Q289 407 317 426T368 467T406 517T422 581Q422 613 411 637T379 679T333 705T276 714Q249 714 223 706T177
682T143 641T130 581Q130 556 141 532T168 484T203 438T236 394Q204 374 170 352T108 301T62 239T44 160Q44 118 62 86T108 31T174 -4T248 -16Q324 -16 375 21T457 113L546 0H572ZM248 378L444 132Q416 75 368 39T248 3Q214 3 181 13T122 43T80 92T64 160Q64 202
81 234T126 291T185 338T248 378ZM150 583Q150 609 160 629T187 664T228 686T277 694Q302 694 324 686T364 664T392 628T402 581Q402 550 387 524T349 477T300 437T253 404Q226 439 207 465T175 511T156 549T150 583Z" />
<glyph unicode="&apos;" glyph-name="quotesingle" horiz-adv-x="167" d="M74 714V489H94V714H74Z" />
<glyph unicode="(" glyph-name="parenleft" horiz-adv-x="222" d="M204 731H184Q127 628 98 514T68 282Q68 217 75 159T97 45T134 -65T185 -176H205Q147 -70 118 45T88 282Q88 400 117 514T204 731Z" />
<glyph unicode=")" glyph-name="parenright" horiz-adv-x="222" d="M18 -176H38Q95 -73 124 40T154 272Q154 337 147 395T125 509T88 619T37 731H17Q75 625 104 509T134 272Q134 154 105 41T18 -176Z" />
<glyph unicode="*" glyph-name="asterisk" horiz-adv-x="352" d="M184 714H164V574L38 617L32 598L162 555L74 451L90 438L174 542L257 434L273 446L190 555L320 598L316 617L184 574V714Z" />
<glyph unicode="+" glyph-name="plus" horiz-adv-x="600" d="M290 506V263H48V243H290V0H310V243H552V263H310V506H290Z" />
<glyph unicode="," glyph-name="comma" horiz-adv-x="278" d="M149 98H129V0Q129 -40 124 -62T105 -98V-118Q130 -101 139 -73T149 0V98Z" />
<glyph unicode="-" glyph-name="hyphen" horiz-adv-x="333" d="M79 278V258H254V278H79Z" />
<glyph unicode="." glyph-name="period" horiz-adv-x="278" d="M149 0V98H129V0H149Z" />
<glyph unicode="/" glyph-name="slash" horiz-adv-x="333" d="M-6 -16H13L340 731H320L-6 -16Z" />
<glyph unicode="0" glyph-name="zero" horiz-adv-x="556" d="M535 340Q535 404 523 467T480 580T401 661T278 692Q205 692 156 661T76 580T34 467T21 340Q21 276 33 213T76 100T155 20T278 -11Q352 -11 401 19T480 100T522 213T535 340ZM515 340Q515 283 504 224T466
117T394 39T278 8Q208 8 163 38T90 117T52 224T41 340Q41 397 52 456T90 563T162 641T278 672Q348 672 393 642T466 563T504 456T515 340Z" />
<glyph unicode="1" glyph-name="one" horiz-adv-x="556" d="M298 654V0H318V680H296Q275 656 256 637T215 603T170 576T115 554V534Q166 548 215 579T296 654H298Z" />
<glyph unicode="2" glyph-name="two" horiz-adv-x="556" d="M513 20H75Q79 64 112 101T191 174T291 245T389 321T465 407T495 509Q495 555 479 589T434 646T368 680T286 692Q177 692 123 631T67 457H87Q87 504 98 543T133 611T195 656T286 672Q327 672 361 662T421
631T460 580T475 509Q475 469 458 435T411 370T345 311T269 256Q231 229 193 202T123 144T73 78T55 0H513V20Z" />
<glyph unicode="3" glyph-name="three" horiz-adv-x="556" d="M59 469H79Q78 520 92 558T135 621T202 659T291 672Q327 672 361 665T422 640T466 594T484 525Q484 483 468 455T426 409T368 384T302 376H253V356H302Q344 354 379 344T441 314T482 263T497 188Q497
144 480 111T433 54T366 20T287 8Q234 8 190 22T116 65T71 134T60 230H40Q36 172 52 127T102 52T182 5T287 -11Q334 -11 375 2T448 40T498 103T517 188Q517 232 504 264T468 317T417 350T358 365V367Q421 373 462 413T504 525Q504 570 486 602T438 654T370 683T291
692Q238 692 195 678T121 636T74 567T59 469Z" />
<glyph unicode="4" glyph-name="four" horiz-adv-x="556" d="M34 177H379V0H399V177H522V197H399V680H374L34 201V177ZM379 652V197H54L377 652H379Z" />
<glyph unicode="5" glyph-name="five" horiz-adv-x="556" d="M147 660H480V680H131L58 337H83Q111 388 162 414T273 441Q321 441 361 425T429 381T472 313T488 226Q488 177 473 137T430 68T363 24T273 8Q224 8 183 22T114 63T70 129T57 218H37Q35 163 52 121T100
49T176 5T273 -11Q326 -11 369 5T443 53T491 128T508 226Q508 277 491 320T443 395T369 443T273 461Q213 461 165 439T87 369H85L147 660Z" />
<glyph unicode="6" glyph-name="six" horiz-adv-x="556" d="M485 520H505Q500 556 483 587T439 642T376 678T295 692Q220 692 171 658T93 570T51 450T39 321Q39 255 47 198T84 95Q97 75 116 56T161 22T216 -2T282 -11Q329 -11 371 6T446 55T498 129T517 223Q517
276 497 319T444 393T369 441T282 458Q242 458 205 445T138 409T88 354T60 287H58Q57 346 65 413T98 538T171 634T294 672Q320 672 349 666T405 642T453 596T485 520ZM497 223Q497 178 480 139T434 71T366 25T282 8Q237 8 198 25T130 71T84 139T67 223Q67 268 84
307T130 375T198 421T282 438Q327 438 366 421T434 375T480 307T497 223Z" />
<glyph unicode="7" glyph-name="seven" horiz-adv-x="556" d="M61 660H473Q404 591 348 517T251 362T189 190T168 0H188Q188 102 210 190T272 358T369 511T495 653V680H61V660Z" />
<glyph unicode="8" glyph-name="eight" horiz-adv-x="556" d="M471 520Q471 484 454 458T409 415T347 390T278 382Q244 382 210 390T148 414T103 457T85 520Q85 564 101 593T145 639T206 664T278 672Q315 672 349 665T411 640T454 593T471 520ZM351 373V375Q380
379 405 391T450 422T480 466T491 520Q491 566 475 598T429 652T361 682T278 692Q234 692 195 683T127 652T82 599T65 520Q65 491 76 466T106 423T150 392T205 375V373Q124 365 78 317T31 190Q31 137 51 99T104 37T183 1T278 -11Q328 -11 373 0T451 36T505 99T525
190Q525 268 479 316T351 373ZM505 190Q505 141 487 107T437 50T364 18T278 8Q233 8 192 18T120 50T70 106T51 190Q51 239 70 272T120 325T193 353T278 362Q322 362 363 354T435 325T486 272T505 190Z" />
<glyph unicode="9" glyph-name="nine" horiz-adv-x="556" d="M489 457Q489 412 472 373T426 305T358 259T274 242Q229 242 190 259T122 305T76 373T59 457Q59 502 76 541T122 609T190 655T274 672Q319 672 358 655T426 609T472 541T489 457ZM71 160H51Q56 124
73 93T117 38T180 2T261 -11Q336 -11 385 23T464 110T506 229T518 359Q518 425 510 482T472 585Q459 605 440 624T395 658T340 682T274 692Q227 692 185 675T110 626T58 551T39 457Q39 405 59 362T112 287T187 239T274 222Q315 222 352 235T418 271T468 326T496
393H498Q499 354 496 311T484 224T458 142T415 73T351 26T262 8Q237 8 208 14T151 38T103 84T71 160Z" />
<glyph unicode=":" glyph-name="colon" horiz-adv-x="278" d="M129 416H149V514H129V416ZM129 0H149V98H129V0Z" />
<glyph unicode=";" glyph-name="semicolon" horiz-adv-x="278" d="M129 416H149V514H129V416ZM149 0V98H129V0Q129 -40 124 -62T105 -98V-118Q130 -101 139 -73T149 0Z" />
<glyph unicode="&lt;" glyph-name="less" horiz-adv-x="600" d="M554 -7V13L64 253L554 493V514L46 265V241L554 -7Z" />
<glyph unicode="=" glyph-name="equal" horiz-adv-x="600" d="M48 146H552V166H48V146ZM48 340H552V360H48V340Z" />
<glyph unicode="&gt;" glyph-name="greater" horiz-adv-x="600" d="M536 253L46 13V-7L554 241V265L46 514V493L536 253Z" />
<glyph unicode="?" glyph-name="question" horiz-adv-x="500" d="M232 0H252V98H232V0ZM35 493H55Q53 541 65 581T102 650T165 695T252 711Q290 711 322 702T378 674T415 628T429 565Q429 527 416 498T386 447T352 413T330 394Q302 367 283 343T253 295T237 243T232
182H252Q252 218 257 245T274 294T305 338T351 386Q363 397 380 412T412 448T438 498T449 565Q449 605 434 636T392 688T329 720T252 731Q200 731 159 714T89 665T47 590T35 493Z" />
<glyph unicode="@" glyph-name="at" horiz-adv-x="800" d="M594 547L570 481H568Q555 521 517 543T431 566Q378 566 334 539T259 468T211 375T194 277Q194 247 204 221T233 175T276 144T330 132Q365 132 401 144T466 195H468Q463 167 480 150T527 132Q563 132
601 154T671 214T723 302T743 411Q743 480 718 536T648 631T545 691T419 712Q345 712 279 685T164 610T86 497T57 353Q57 258 88 189T171 76T287 10T419 -11Q465 -11 510 1T597 37T673 93T732 166H709Q686 133 655 104T587 54T507 20T419 8Q350 8 288 30T179 95T105
203T77 353Q77 424 103 485T175 593T283 665T419 692Q484 692 540 672T636 614T700 525T723 411Q723 356 704 309T657 227T594 172T529 152Q509 152 499 160T487 183T490 217T504 259L615 547H594ZM559 456L488 272Q474 236 456 213T417 176T376 157T334 152Q308
152 286 161T248 188T223 227T214 277Q214 319 229 366T273 453T340 519T427 546Q446 546 466 542T505 527T538 499T559 456Z" />
<glyph unicode="A" glyph-name="A" horiz-adv-x="575" d="M106 235H470L564 0H586L304 714H278L-11 0H11L106 235ZM462 255H114L290 694H292L462 255Z" />
<glyph unicode="B" glyph-name="B" horiz-adv-x="611" d="M67 382V694H354Q392 694 425 685T482 656T521 607T535 536Q535 498 520 469T480 421T423 392T354 382H67ZM47 714V0H342Q393 0 436 12T511 49T559 109T577 194Q577 235 563 267T526 322T471 357T404 371V373Q437
375 464 388T512 424T543 475T555 536Q555 581 540 614T497 669T433 703T354 714H47ZM67 20V362H354Q392 362 428 353T493 324T539 272T557 193Q557 149 541 117T498 63T433 31T351 20H67Z" />
<glyph unicode="C" glyph-name="C" horiz-adv-x="685" d="M662 280H642Q634 221 611 170T551 82T463 24T348 3Q276 3 220 32T124 109T65 220T45 351Q45 407 61 470T115 586T212 675T361 711Q419 711 466 693T548 644T603 577T626 500H646Q645 533 627 573T574
648T485 707T361 731Q270 731 206 696T102 606T44 484T25 351Q25 271 49 204T115 88T217 12T348 -16Q416 -16 470 6T563 67T628 160T662 280Z" />
<glyph unicode="D" glyph-name="D" horiz-adv-x="648" d="M74 20V694H299Q353 694 404 679T497 626T563 522T588 357Q588 271 564 208T497 103T398 41T278 20H74ZM54 714V0H273Q338 0 398 20T505 82T580 193T608 357Q608 462 581 531T510 640T412 697T304 714H54Z" />
<glyph unicode="E" glyph-name="E" horiz-adv-x="537" d="M74 20V362H501V382H74V694H528V714H54V0H532V20H74Z" />
<glyph unicode="F" glyph-name="F" horiz-adv-x="481" d="M74 382V694H494V714H54V0H74V362H454V382H74Z" />
<glyph unicode="G" glyph-name="G" horiz-adv-x="722" d="M377 314H654V277Q654 218 632 168T572 81T481 24T370 3Q291 3 232 31T132 107T72 219T52 357Q52 430 73 494T134 607T233 683T367 711Q423 711 469 696T551 651T610 582T643 491H663Q654 546 630 590T567
665T478 714T367 731Q288 731 226 702T121 623T55 504T32 357Q32 280 53 212T117 94T222 14T367 -16Q473 -16 548 35T652 177H654V0H674V334H377V314Z" />
<glyph unicode="H" glyph-name="H" horiz-adv-x="648" d="M74 362H574V0H594V714H574V382H74V714H54V0H74V362Z" />
<glyph unicode="I" glyph-name="I" horiz-adv-x="128" d="M54 714V0H74V714H54Z" />
<glyph unicode="J" glyph-name="J" horiz-adv-x="463" d="M384 714V201Q384 145 373 107T339 46T284 13T208 3Q124 3 81 46T38 178V221H18V178Q18 136 28 101T62 39T121 -1T208 -16Q262 -16 299 -2T360 40T393 104T404 186V714H384Z" />
<glyph unicode="K" glyph-name="K" horiz-adv-x="593" d="M74 253L238 398L592 0H619L254 410L599 714H569L74 280V714H54V0H74V253Z" />
<glyph unicode="L" glyph-name="L" horiz-adv-x="481" d="M491 20H74V714H54V0H491V20Z" />
<glyph unicode="M" glyph-name="M" horiz-adv-x="780" d="M693 714L391 26H389L87 714H54V0H74V689H76L379 0H401L704 689H706V0H726V714H693Z" />
<glyph unicode="N" glyph-name="N" horiz-adv-x="648" d="M54 714V0H74V689H76L564 0H594V714H574V25H572L84 714H54Z" />
<glyph unicode="O" glyph-name="O" horiz-adv-x="721" d="M32 357Q32 281 53 213T116 94T219 14T361 -16Q441 -16 502 13T605 94T668 213T690 357Q690 433 669 501T606 620T503 701T361 731Q281 731 220 701T117 620T54 501T32 357ZM52 357Q53 434 74 499T135
611T232 684T361 711Q433 711 490 685T586 611T647 499T670 357Q669 280 648 215T587 103T490 30T361 3Q289 3 232 29T136 103T75 215T52 357Z" />
<glyph unicode="P" glyph-name="P" horiz-adv-x="574" d="M74 0V325H333Q383 325 424 337T496 374T543 435T560 519Q560 616 503 665T343 714H54V0H74ZM74 345V694H343Q443 694 491 649T540 519Q540 477 525 445T484 391T421 357T343 345H74Z" />
<glyph unicode="Q" glyph-name="Q" horiz-adv-x="721" d="M571 58L689 -21L699 -7L584 71Q638 123 664 197T690 357Q690 433 669 501T606 620T503 701T361 731Q281 731 220 701T117 620T54 501T32 357Q32 281 53 213T116 94T219 14T361 -16Q427 -16 479 3T571
58ZM427 156L553 70Q515 38 467 21T361 3Q289 3 232 29T136 103T75 215T52 357Q53 434 74 499T135 611T232 684T361 711Q433 711 490 685T586 611T647 499T670 357Q669 269 643 200T567 83L438 172L427 156Z" />
<glyph unicode="R" glyph-name="R" horiz-adv-x="611" d="M74 0V335H343Q405 335 442 323T499 287T525 229T532 150Q532 133 532 112T534 69T539 30T547 0H569Q564 7 561 25T556 65T553 109T552 147Q552 190 547 224T527 283T484 323T411 345V347Q486 364 526
411T564 531Q562 625 510 669T346 714H54V0H74ZM74 355V694H351Q453 694 498 652T544 533Q544 486 527 453T482 397T418 365T341 355H74Z" />
<glyph unicode="S" glyph-name="S" horiz-adv-x="611" d="M531 514H551Q548 574 528 615T475 682T397 719T299 731Q256 731 213 722T134 692T77 636T55 547Q55 495 76 463T131 411T209 380T295 359Q336 349 380 340T461 312T521 262T545 176Q545 130 525 97T471
43T397 13T313 3Q256 3 209 15T127 56T73 128T54 237H34Q33 169 53 121T111 43T200 -2T313 -16Q359 -16 404 -6T485 28T543 88T565 175Q565 231 546 264T493 317T416 349T321 374Q275 385 231 395T153 423T97 470T75 547Q75 595 96 626T149 677T222 703T299 711Q347
711 389 701T461 668T510 607T531 514Z" />
<glyph unicode="T" glyph-name="T" horiz-adv-x="500" d="M-16 694H240V0H260V694H517V714H-16V694Z" />
<glyph unicode="U" glyph-name="U" horiz-adv-x="632" d="M558 714V266Q558 137 499 70T316 3Q192 3 133 70T74 266V714H54V266Q54 122 121 53T316 -16Q444 -16 511 53T578 266V714H558Z" />
<glyph unicode="V" glyph-name="V" horiz-adv-x="538" d="M536 714L274 26H272L2 714H-17L262 0H284L556 714H536Z" />
<glyph unicode="W" glyph-name="W" horiz-adv-x="870" d="M860 714L661 25H659L450 714H421L215 25H213L11 714H-9L201 0H228L434 689H436L646 0H673L880 714H860Z" />
<glyph unicode="X" glyph-name="X" horiz-adv-x="520" d="M510 714L261 383L14 714H-11L248 367L-26 0H-1L261 351L522 0H547L275 367L535 714H510Z" />
<glyph unicode="Y" glyph-name="Y" horiz-adv-x="538" d="M544 714L269 322L-4 714H-29L259 301V0H279V301L568 714H544Z" />
<glyph unicode="Z" glyph-name="Z" horiz-adv-x="500" d="M508 20H1L500 687V714H9V694H480L-18 27V0H508V20Z" />
<glyph unicode="[" glyph-name="bracketleft" horiz-adv-x="222" d="M209 731H96V-176H209V-156H116V711H209V731Z" />
<glyph unicode="\" glyph-name="backslash" horiz-adv-x="333" d="M320 -16H340L13 731H-6L320 -16Z" />
<glyph unicode="]" glyph-name="bracketright" horiz-adv-x="222" d="M13 -176H126V731H13V711H106V-156H13V-176Z" />
<glyph unicode="^" glyph-name="asciicircum" horiz-adv-x="600" d="M541 227L310 680H290L59 227H79L300 660L521 227H541Z" />
<glyph unicode="_" glyph-name="underscore" horiz-adv-x="500" d="M0 -124H500V-74H0V-124Z" />
<glyph unicode="`" glyph-name="grave" horiz-adv-x="130" d="M-37 731L101 587H116L-8 731H-37Z" />
<glyph unicode="a" glyph-name="a" horiz-adv-x="481" d="M54 355H74Q79 427 124 466T250 506Q301 506 331 493T376 458T396 412T400 364Q400 335 389 320T353 297T290 287T199 281Q167 279 135 273T78 250T38 204T22 127Q22 58 69 24T194 -11Q234 -11 268 -1T328
28T372 69T398 117H400V50Q400 21 416 11T455 0H485V20Q475 19 464 19T442 20T426 30T420 52V379Q419 421 405 449T368 494T315 519T250 526Q202 526 167 513T107 477T69 423T54 355ZM400 302V207Q400 169 387 133T347 70T281 25T192 8Q150 8 122 18T75 45T50 83T42
127Q42 168 55 193T90 233T140 253T199 261T260 264T319 269T367 280T398 302H400Z" />
<glyph unicode="b" glyph-name="b" horiz-adv-x="537" d="M75 370V714H55V0H75V144H77Q97 75 150 32T283 -11Q334 -11 374 9T443 64T487 149T502 256Q502 310 488 359T446 445T377 504T283 526Q201 526 148 483T77 370H75ZM75 256Q75 377 132 441T283 506Q336
506 373 484T435 426T470 346T482 256Q482 207 470 162T433 83T371 28T283 8Q234 8 195 28T130 82T89 161T75 256Z" />
<glyph unicode="c" glyph-name="c" horiz-adv-x="500" d="M469 175H449Q446 136 430 106T389 53T330 20T259 8Q208 8 169 27T104 80T65 156T51 246Q51 291 62 337T99 421T167 482T271 506Q303 506 332 497T384 470T423 424T445 358H465Q460 399 443 430T399 483T340
515T271 526Q210 526 165 503T90 442T46 353T31 246Q31 193 46 147T90 65T161 10T259 -11Q303 -11 339 2T403 39T448 97T469 175Z" />
<glyph unicode="d" glyph-name="d" horiz-adv-x="537" d="M455 714V370H453Q435 440 382 483T247 526Q194 526 153 504T85 445T43 359T28 256Q28 198 43 149T86 65T155 9T247 -11Q326 -11 379 32T453 144H455V0H475V714H455ZM455 256Q455 206 441 161T401 82T336
28T247 8Q197 8 160 28T98 82T61 162T48 256Q48 301 59 345T95 425T157 483T247 506Q341 506 398 442T455 256Z" />
<glyph unicode="e" glyph-name="e" horiz-adv-x="500" d="M45 253H475Q477 306 465 355T425 442T354 503T250 526Q207 526 166 508T94 456T44 371T25 257Q25 200 38 151T78 65T147 8T250 -11Q338 -11 398 38T469 178H449Q436 93 383 51T248 8Q193 8 155 27T93
79T58 156T45 253ZM455 273H45Q48 327 65 370T109 443T173 490T252 506Q302 506 340 488T403 437T442 363T455 273Z" />
<glyph unicode="f" glyph-name="f" horiz-adv-x="204" d="M0 494H87V0H107V494H218V514H107V621Q107 659 121 676T184 694Q195 694 206 693T231 690V710Q223 711 213 712T188 714Q172 714 154 712T121 702T97 676T87 628V514H0V494Z" />
<glyph unicode="g" glyph-name="g" horiz-adv-x="519" d="M446 172V17Q446 -79 396 -123T251 -168Q217 -168 186 -160T130 -135T92 -91T76 -26H56Q57 -70 73 -100T116 -150T178 -179T252 -188Q354 -188 410 -139T466 17V514H446V377H444Q436 409 419 436T376 483T318
514T249 526Q195 526 154 506T84 452T42 372T28 274Q28 225 41 180T81 102T148 48T242 28Q275 28 307 37T367 65T415 111T444 172H446ZM445 274Q445 228 432 187T393 115T329 66T241 48Q194 48 158 65T98 113T61 185T48 274Q48 321 60 363T98 437T161 487T249 506Q297
506 334 487T395 435T432 360T445 274Z" />
<glyph unicode="h" glyph-name="h" horiz-adv-x="500" d="M55 714V0H75V291Q75 334 87 373T122 441T181 488T262 506Q295 506 324 497T376 467T412 415T425 338V0H445V341Q445 386 432 420T394 478T336 514T262 526Q224 526 193 516T139 486T100 442T77 387H75V714H55Z" />
<glyph unicode="i" glyph-name="i" horiz-adv-x="130" d="M75 613V714H55V613H75ZM75 0V514H55V0H75Z" />
<glyph unicode="j" glyph-name="j" horiz-adv-x="130" d="M75 613V714H55V613H75ZM75 -74V514H55V-67Q55 -99 50 -117T32 -143T0 -154T-48 -156V-176Q-19 -176 4 -174T43 -161T67 -130T75 -74Z" />
<glyph unicode="k" glyph-name="k" horiz-adv-x="444" d="M75 194L208 304L449 0H476L223 318L459 514H430L75 219V714H55V0H75V194Z" />
<glyph unicode="l" glyph-name="l" horiz-adv-x="130" d="M55 714V0H75V714H55Z" />
<glyph unicode="m" glyph-name="m" horiz-adv-x="778" d="M55 514V0H75V291Q75 334 86 373T119 441T172 488T241 506Q284 506 311 492T353 454T373 398T379 330V0H399V326Q399 362 410 394T442 452T493 491T560 506Q602 506 629 494T673 460T696 407T703 338V0H723V338Q723
380 715 414T688 473T638 512T560 526Q500 526 456 493T397 406H395Q382 463 342 495T241 526Q211 526 185 516T136 486T99 442T77 387H75V514H55Z" />
<glyph unicode="n" glyph-name="n" horiz-adv-x="500" d="M55 514V0H75V291Q75 334 87 373T122 441T181 488T262 506Q295 506 324 497T376 467T412 415T425 338V0H445V341Q445 386 432 420T394 478T336 514T262 526Q224 526 193 516T139 486T100 442T77 387H75V514H55Z" />
<glyph unicode="o" glyph-name="o" horiz-adv-x="519" d="M48 257Q48 305 61 350T102 429T168 485T260 506Q311 506 350 485T417 430T457 350T471 257Q471 208 458 163T417 84T351 29T260 8Q208 8 169 28T102 83T62 163T48 257ZM28 257Q28 204 43 156T87 70T160
11T259 -11Q316 -11 359 11T431 70T476 155T491 257Q491 310 476 358T432 444T359 503T260 526Q203 526 160 504T88 444T43 359T28 257Z" />
<glyph unicode="p" glyph-name="p" horiz-adv-x="537" d="M75 -176V144H77Q95 74 148 32T283 -11Q336 -11 377 10T445 69T487 155T502 258Q502 316 487 365T444 450T375 506T283 526Q244 526 211 515T151 482T106 433T77 370H75V514H55V-176H75ZM283 8Q189 8 132
72T75 258Q75 308 89 353T129 432T195 486T283 506Q333 506 370 486T432 432T469 353T482 258Q482 213 471 169T435 89T374 31T283 8Z" />
<glyph unicode="q" glyph-name="q" horiz-adv-x="537" d="M455 258Q455 137 398 73T247 8Q195 8 157 30T95 88T60 168T48 258Q48 308 60 352T97 431T159 486T247 506Q297 506 335 486T400 432T441 353T455 258ZM455 514V370H453Q443 404 425 432T380 482T320 514T247
526Q196 526 156 506T87 450T43 365T28 258Q28 204 42 155T84 69T153 11T247 -11Q329 -11 382 31T453 144H455V-176H475V514H455Z" />
<glyph unicode="r" glyph-name="r" horiz-adv-x="259" d="M75 0V291Q75 333 87 373T124 443T187 491T279 506V526Q233 527 199 516T139 486T99 442T77 387H75V514H55V0H75Z" />
<glyph unicode="s" glyph-name="s" horiz-adv-x="463" d="M390 362H410Q410 448 360 487T224 526Q176 526 143 514T89 483T59 441T50 397Q50 355 65 330T112 291Q134 281 162 273T227 256Q260 248 292 240T348 219T388 184T404 129Q404 96 389 73T349 36T296 15T238
8Q147 8 99 48T50 176H30Q30 79 82 34T238 -11Q271 -11 304 -4T364 21T407 65T424 131Q424 168 410 191T372 229T319 252T259 269Q217 280 186 288T127 307Q101 318 86 338T70 397Q70 404 74 422T93 458T139 491T224 506Q261 506 291 498T344 473T378 428T390 362Z"
/>
<glyph unicode="t" glyph-name="t" horiz-adv-x="241" d="M110 494H226V514H110V676H90V514H-4V494H90V96Q90 41 114 21T174 0Q197 0 205 1T223 3V23Q218 21 206 21T179 20Q167 20 155 21T133 31T117 55T110 100V494Z" />
<glyph unicode="u" glyph-name="u" horiz-adv-x="500" d="M445 0V514H425V223Q425 180 413 141T378 73T319 26T238 8Q205 8 176 17T124 47T88 99T75 176V514H55V173Q55 128 68 94T106 36T164 1T238 -11Q314 -11 361 28T423 127H425V0H445Z" />
<glyph unicode="v" glyph-name="v" horiz-adv-x="407" d="M397 514L213 20H211L12 514H-11L200 0H225L419 514H397Z" />
<glyph unicode="w" glyph-name="w" horiz-adv-x="685" d="M673 514L517 20H515L357 514H326L167 20H165L12 514H-7L152 0H180L341 494H343L503 0H529L693 514H673Z" />
<glyph unicode="x" glyph-name="x" horiz-adv-x="407" d="M380 514L203 281L30 514H4L191 266L-14 0H10L203 251L397 0H422L216 266L404 514H380Z" />
<glyph unicode="y" glyph-name="y" horiz-adv-x="407" d="M398 514L214 27L10 514H-11L203 5L166 -90Q157 -113 147 -126T123 -146T91 -154T46 -156V-176Q69 -176 89 -175T127 -166T158 -145T182 -104L419 514H398Z" />
<glyph unicode="z" glyph-name="z" horiz-adv-x="407" d="M402 20H26L386 489V514H32V494H365L5 25V0H402V20Z" />
<glyph unicode="{" glyph-name="braceleft" horiz-adv-x="333" d="M230 -176H280V-156H232Q218 -156 208 -152T191 -135T181 -102T177 -47V114Q177 171 158 216T105 278Q124 286 137 304T160 345T173 393T177 440V604Q177 666 189 688T232 711H280V731H230Q188
731 173 705T157 622V457Q157 427 152 398T138 346T115 308T85 290V270Q129 241 143 200T157 97V-65Q157 -122 172 -149T230 -176Z" />
<glyph unicode="|" glyph-name="bar" horiz-adv-x="222" d="M101 -213H121V786H101V-213Z" />
<glyph unicode="}" glyph-name="braceright" horiz-adv-x="333" d="M103 731H53V711H101Q115 711 125 707T142 690T152 657T156 602V440Q156 383 175 338T228 276Q209 268 196 250T173 209T160 161T156 114V-49Q156 -111 144 -133T101 -156H53V-176H103Q145 -176
160 -150T176 -67V97Q176 127 181 156T195 208T218 246T248 264V284Q204 312 190 354T176 457V620Q176 677 161 704T103 731Z" />
<glyph unicode="~" glyph-name="asciitilde" horiz-adv-x="600" d="M523 295L503 301Q494 288 485 275T466 252T443 236T415 229Q395 229 369 240T312 264Q283 278 253 289T195 298Q153 298 125 272T77 211L97 205Q115 237 138 257T195 278Q234 278 262 266T317
241Q343 230 366 220T414 209Q434 209 449 216T478 236T502 263T523 295Z" />
</font>
</defs>
</svg>
