<?xml version="1.0" standalone="no"?> <!DOCTYPE svg PUBLIC "-//W3C//DTD SVG 1.0//EN" "http://www.w3.org/TR/2001/REC-SVG-20010904/DTD/svg10.dtd" > <svg xmlns="http://www.w3.org/2000/svg" width="100%" height="100%">
<defs >
<font id="helveticaneuemedium" horiz-adv-x="463" ><font-face
    font-family="HelveticaNeue LT 65 Medium"
    units-per-em="1000"
    panose-1="2 0 6 3 2 0 0 2 0 4"
    ascent="0"
    descent="0"
    alphabetic="0" />
<missing-glyph horiz-adv-x="500" d="M442 8V504H58V8H442ZM50 512H450V0H50V512Z" />
<glyph unicode=" " glyph-name="space" horiz-adv-x="278" />
<glyph unicode="!" glyph-name="exclam" horiz-adv-x="278" d="M72 125H206V0H72V125ZM77 714H202V508L169 199H110L77 508V714Z" />
<glyph unicode="&quot;" glyph-name="quotedbl" horiz-adv-x="444" d="M259 714H361V432H259V714ZM83 714H185V432H83V714Z" />
<glyph unicode="#" glyph-name="numbersign" horiz-adv-x="556" d="M237 415L219 285H330L348 415H237ZM495 210H400L370 0H290L319 210H209L179 0H99L128 210H34V285H139L157 415H63V490H167L196 700H277L247 490H358L387 700H468L438 490H524V415H428L410 285H495V210Z" />
<glyph unicode="$" glyph-name="dollar" horiz-adv-x="556" d="M259 641Q205 641 176 619T146 543Q146 519 156 502T181 473T217 454T259 441V641ZM131 217Q130 151 160 113T259 73V315Q218 326 178 341T105 381T52 443T32 535Q32 583 50 619T100 680T173 718T259
731V809H302V731Q347 731 387 719T456 683T503 622T521 536H407Q405 587 381 614T302 641V430Q347 418 390 402T466 361T519 299T539 208Q539 152 521 111T470 42T395 0T302 -17V-95H259V-17Q205 -16 160 0T83 45T34 118T17 217H131ZM302 73Q356 77 390 104T425
192Q425 220 415 239T387 271T347 292T302 306V73Z" />
<glyph unicode="%" glyph-name="percent" horiz-adv-x="1000" d="M172 515Q172 487 176 463T189 420T212 392T248 381Q269 381 284 391T308 420T321 462T326 515Q326 540 323 564T310 607T286 637T248 649Q225 649 210 638T187 607T175 564T172 515ZM249 316Q204
316 172 332T120 375T91 438T82 515Q82 555 91 591T121 655T173 698T249 714Q293 714 324 698T376 655T406 592T416 515Q416 474 407 438T378 375T326 332T249 316ZM674 185Q674 157 678 133T691 90T714 62T750 51Q771 51 786 61T810 90T823 132T828 185Q828 210
825 234T812 277T788 307T750 319Q727 319 712 308T689 277T677 234T674 185ZM751 -14Q706 -14 674 2T622 45T593 108T584 185Q584 225 593 261T623 325T675 368T751 384Q795 384 826 368T878 325T908 262T918 185Q918 144 909 108T880 45T828 2T751 -14ZM649 724H725L338
-24H260L649 724Z" />
<glyph unicode="&amp;" glyph-name="ampersand" horiz-adv-x="648" d="M457 80Q417 31 369 9T257 -14Q208 -14 167 0T95 42T49 108T32 198Q32 236 46 267T83 323T135 369T196 405Q182 423 169 440T146 477T130 517T124 561Q124 600 137 631T175 684T231 719T299
731Q333 731 365 721T422 689T462 635T477 560Q477 528 467 501T439 452T398 411T348 379L459 245Q465 262 471 284T481 341H581Q576 294 563 249T525 166L662 0H522L457 80ZM256 330Q240 320 221 310T186 285T158 249T146 196Q146 138 178 107T261 76Q292 76 314
84T351 105T377 131T396 156L256 330ZM302 646Q270 646 248 625T226 567Q226 549 232 534T248 504T269 475T291 448Q307 459 322 470T349 495T368 526T375 564Q375 599 355 622T302 646Z" />
<glyph unicode="&apos;" glyph-name="quotesingle" horiz-adv-x="278" d="M88 714H190V432H88V714Z" />
<glyph unicode="(" glyph-name="parenleft" horiz-adv-x="278" d="M193 -191Q163 -143 137 -92T91 15T60 135T49 270Q49 391 86 508T193 731H286Q226 623 195 510T163 270Q163 144 193 30T286 -191H193Z" />
<glyph unicode=")" glyph-name="parenright" horiz-adv-x="278" d="M85 731Q115 683 141 632T186 524T217 404T229 269Q229 148 192 31T85 -191H-8Q52 -84 83 29T115 269Q115 395 85 509T-8 731H85Z" />
<glyph unicode="*" glyph-name="asterisk" horiz-adv-x="370" d="M19 572L41 637L151 594V714H219V594L328 637L352 572L238 534L308 440L255 401L184 499L116 401L60 440L130 534L19 572Z" />
<glyph unicode="+" glyph-name="plus" horiz-adv-x="600" d="M249 506H351V304H552V202H351V0H249V202H48V304H249V506Z" />
<glyph unicode="," glyph-name="comma" horiz-adv-x="278" d="M69 135H208V0Q207 -62 170 -104T73 -158V-97Q106 -89 122 -61T138 0H69V135Z" />
<glyph unicode="-" glyph-name="hyphen" horiz-adv-x="389" d="M49 326H340V218H49V326Z" />
<glyph unicode="." glyph-name="period" horiz-adv-x="278" d="M69 135H208V0H69V135Z" />
<glyph unicode="/" glyph-name="slash" horiz-adv-x="352" d="M265 731H374L87 -17H-22L265 731Z" />
<glyph unicode="0" glyph-name="zero" horiz-adv-x="556" d="M278 714Q353 714 400 680T474 592T510 474T520 350Q520 290 511 226T475 109T401 21T278 -14Q203 -14 156 20T82 108T46 226T36 350Q36 410 45 474T81 591T155 679T278 714ZM278 81Q315 81 340 102T379
160T400 246T406 350Q406 405 400 453T380 539T340 597T278 619Q240 619 216 598T177 539T156 454T150 350Q150 295 156 246T176 161T215 103T278 81Z" />
<glyph unicode="1" glyph-name="one" horiz-adv-x="556" d="M53 584Q89 584 123 590T184 610T231 646T257 700H350V0H225V494H53V584Z" />
<glyph unicode="2" glyph-name="two" horiz-adv-x="556" d="M517 0H39Q40 87 81 152T193 265Q227 290 264 313T332 364T383 422T404 495Q404 514 400 535T382 575T346 606T286 619Q252 619 230 606T194 569T174 513T166 444H52Q52 502 67 551T114 637T189 693T293
714Q357 714 400 693T469 640T507 571T518 499Q518 457 505 423T470 361T420 308T362 263T302 223T247 185T202 146T176 102H517V0Z" />
<glyph unicode="3" glyph-name="three" horiz-adv-x="556" d="M228 410Q256 409 284 414T334 431T369 466T383 520Q383 565 353 592T274 619Q244 619 222 607T186 575T164 529T158 476H44Q46 527 63 570T109 646T181 696T276 714Q317 714 356 702T427 667T478
609T497 527Q497 474 473 435T398 377V375Q458 363 491 316T525 200Q525 150 505 111T451 44T372 1T277 -14Q216 -14 171 3T95 53T48 130T31 230H145Q143 166 176 124T277 81Q334 81 372 113T411 206Q411 247 395 271T353 307T295 323T228 325V410Z" />
<glyph unicode="4" glyph-name="four" horiz-adv-x="556" d="M112 256H324V564H322L112 256ZM522 166H432V0H324V166H24V279L324 700H432V256H522V166Z" />
<glyph unicode="5" glyph-name="five" horiz-adv-x="556" d="M123 700H485V598H208L172 420L174 418Q197 444 232 457T303 471Q355 471 396 454T465 405T507 330T522 237Q522 195 509 151T466 70T390 10T280 -14Q229 -14 186 -1T109 40T57 106T35 199H149Q154
142 188 112T278 81Q314 81 339 93T379 126T401 175T408 235Q408 264 400 290T376 337T335 369T275 381Q239 381 208 368T162 317H48L123 700Z" />
<glyph unicode="6" glyph-name="six" horiz-adv-x="556" d="M395 523Q391 566 365 592T293 619Q262 619 240 608T202 577T177 534T161 482T153 429T148 379L150 377Q173 419 213 439T301 460Q353 460 394 442T463 393T507 318T522 225Q522 174 506 131T458 55T384
4T289 -14Q212 -14 163 14T85 92T45 208T34 352Q34 415 47 479T92 595T173 681T298 714Q340 714 377 700T442 661T489 601T509 523H395ZM285 81Q316 81 339 93T377 126T400 172T408 227Q408 255 401 281T378 326T339 358T285 370Q254 370 231 359T191 328T167 282T159
227Q159 198 167 172T191 126T230 93T285 81Z" />
<glyph unicode="7" glyph-name="seven" horiz-adv-x="556" d="M35 700H514V605Q459 543 414 477T336 336T281 178T253 0H128Q134 83 156 164T214 321T297 467T398 598H35V700Z" />
<glyph unicode="8" glyph-name="eight" horiz-adv-x="556" d="M278 624Q232 624 200 597T168 517Q168 467 199 441T278 414Q326 414 357 440T388 517Q388 569 356 596T278 624ZM278 -14Q225 -14 180 1T101 44T50 114T31 206Q31 272 65 317T159 377V379Q111 397
86 434T60 523Q60 613 116 663T278 714Q383 714 439 664T496 523Q496 472 471 435T397 379V377Q456 362 490 317T525 206Q525 155 507 114T455 45T377 1T278 -14ZM278 76Q335 76 373 110T411 206Q411 264 373 296T278 329Q221 329 183 297T145 206Q145 144 183
110T278 76Z" />
<glyph unicode="9" glyph-name="nine" horiz-adv-x="556" d="M161 177Q165 134 191 108T263 81Q309 81 336 105T379 166T399 244T408 321L406 323Q383 282 343 261T255 239Q205 239 165 256T95 303T50 377T34 475Q34 526 50 569T97 645T173 696T275 714Q349 714
397 686T472 608T511 491T522 348Q522 285 509 221T464 105T383 19T258 -14Q216 -14 179 0T114 39T67 99T47 177H161ZM270 619Q239 619 216 608T178 576T156 530T148 476Q148 447 155 421T178 374T216 342T270 329Q302 329 326 341T365 373T389 420T397 476Q397
504 389 530T366 575T326 607T270 619Z" />
<glyph unicode=":" glyph-name="colon" horiz-adv-x="278" d="M69 135H208V0H69V135ZM69 506H208V371H69V506Z" />
<glyph unicode=";" glyph-name="semicolon" horiz-adv-x="278" d="M69 506H208V371H69V506ZM69 135H208V0Q207 -62 170 -104T73 -158V-97Q106 -89 122 -61T138 0H69V135Z" />
<glyph unicode="&lt;" glyph-name="less" horiz-adv-x="600" d="M554 -8L46 217V289L554 514V412L180 253L554 94V-8Z" />
<glyph unicode="=" glyph-name="equal" horiz-adv-x="600" d="M552 101H48V203H552V101ZM552 303H48V405H552V303Z" />
<glyph unicode="&gt;" glyph-name="greater" horiz-adv-x="600" d="M420 253L46 412V514L554 289V217L46 -8V94L420 253Z" />
<glyph unicode="?" glyph-name="question" horiz-adv-x="556" d="M208 125H342V0H208V125ZM49 487Q49 542 65 587T113 664T189 713T289 731Q335 731 374 718T443 679T490 615T507 529Q507 494 500 469T480 425T451 392T419 363Q400 347 384 332T356 299T338 255T331
194H223Q223 238 227 268T242 322T266 362T301 397Q317 411 331 423T357 449T375 482T382 525Q382 555 372 576T346 611T314 630T284 636Q222 636 193 596T163 487H49Z" />
<glyph unicode="@" glyph-name="at" horiz-adv-x="800" d="M543 279Q539 267 537 255T534 233Q534 223 538 217T553 210Q576 210 599 226T641 272T671 340T683 426Q683 482 662 526T605 602T520 649T416 666Q352 666 300 643T209 579T150 484T129 366Q129 293
151 234T213 134T307 71T425 48Q491 48 550 74T650 147H720Q672 69 593 26T421 -17Q344 -17 276 11T158 91T78 213T49 370Q49 446 78 511T158 626T274 703T416 731Q483 731 543 710T650 649T723 556T751 438Q751 363 726 307T664 214T586 159T515 140Q492 140 475
154T456 198H454Q434 175 404 158T342 141Q311 141 284 153T238 187T207 237T196 298Q196 346 212 392T256 475T325 534T415 557Q450 557 479 540T527 485L545 542H615L543 279ZM361 216Q391 216 416 233T459 277T487 335T498 394Q498 412 492 428T475 456T450
475T419 482Q388 482 363 465T319 423T291 366T281 307Q281 267 302 242T361 216Z" />
<glyph unicode="A" glyph-name="A" horiz-adv-x="667" d="M267 714H400L675 0H541L474 189H189L122 0H-7L267 714ZM223 284H441L334 591H331L223 284Z" />
<glyph unicode="B" glyph-name="B" horiz-adv-x="704" d="M201 415H405Q450 415 480 440T510 514Q510 568 483 590T405 612H201V415ZM76 714H423Q519 714 577 670T635 537Q635 483 609 445T533 385V383Q599 369 633 321T667 199Q667 157 652 121T605 58T523 16T404
0H76V714ZM201 102H422Q479 102 510 131T542 215Q542 268 511 296T422 325H201V102Z" />
<glyph unicode="C" glyph-name="C" horiz-adv-x="722" d="M558 487Q550 518 536 544T500 589T449 618T380 629Q323 629 282 606T214 545T176 457T163 357Q163 306 175 257T214 170T281 108T380 85Q422 85 454 99T509 139T545 199T562 272H684Q680 208 657 155T593
64T499 4T380 -17Q300 -17 237 12T129 93T62 212T38 357Q38 433 61 501T129 620T236 701T380 731Q440 731 493 715T586 667T652 590T683 487H558Z" />
<glyph unicode="D" glyph-name="D" horiz-adv-x="722" d="M76 714H372Q454 714 514 686T612 610T668 496T687 357Q687 283 669 218T612 105T514 28T372 0H76V714ZM201 102H324Q397 102 443 121T516 175T552 256T562 357Q562 411 553 457T517 538T444 592T324 612H201V102Z"
/>
<glyph unicode="E" glyph-name="E" horiz-adv-x="630" d="M76 714H590V606H201V419H561V317H201V108H597V0H76V714Z" />
<glyph unicode="F" glyph-name="F" horiz-adv-x="593" d="M76 714H569V606H201V419H524V317H201V0H76V714Z" />
<glyph unicode="G" glyph-name="G" horiz-adv-x="759" d="M699 0H619L600 84Q550 27 500 5T385 -17Q305 -17 242 12T134 93T67 212T43 357Q43 433 66 501T134 620T241 701T385 731Q443 731 495 716T589 670T657 593T691 487H569Q564 522 548 548T506 593T450 620T385
629Q328 629 287 606T219 545T181 457T168 357Q168 306 180 257T219 170T286 108T385 85Q433 84 470 97T532 136T571 199T585 281H395V376H699V0Z" />
<glyph unicode="H" glyph-name="H" horiz-adv-x="722" d="M73 714H198V430H523V714H648V0H523V322H198V0H73V714Z" />
<glyph unicode="I" glyph-name="I" horiz-adv-x="278" d="M76 714H201V0H76V714Z" />
<glyph unicode="J" glyph-name="J" horiz-adv-x="537" d="M461 230Q461 183 453 139T421 60T350 4T226 -17Q169 -17 129 0T63 48T25 121T13 212V250H138V213Q138 152 158 119T236 85Q266 85 285 94T316 120T332 164T336 223V714H461V230Z" />
<glyph unicode="K" glyph-name="K" horiz-adv-x="685" d="M76 714H201V389L519 714H673L388 429L693 0H537L303 341L201 240V0H76V714Z" />
<glyph unicode="L" glyph-name="L" horiz-adv-x="574" d="M76 714H201V108H564V0H76V714Z" />
<glyph unicode="M" glyph-name="M" horiz-adv-x="889" d="M74 714H250L447 155H449L641 714H815V0H696V551H694L496 0H393L195 551H193V0H74V714Z" />
<glyph unicode="N" glyph-name="N" horiz-adv-x="722" d="M71 714H203L529 188H531V714H650V0H518L193 525H190V0H71V714Z" />
<glyph unicode="O" glyph-name="O" horiz-adv-x="760" d="M380 629Q323 629 282 606T214 545T176 457T163 357Q163 306 175 257T214 170T281 108T380 85Q437 85 478 108T546 169T584 257T597 357Q597 408 585 457T546 544T479 606T380 629ZM380 731Q460 731 523
701T631 620T698 501T722 357Q722 280 699 212T631 93T524 13T380 -17Q300 -17 237 12T129 93T62 212T38 357Q38 433 61 501T129 620T236 701T380 731Z" />
<glyph unicode="P" glyph-name="P" horiz-adv-x="667" d="M76 714H391Q467 714 515 692T589 637T624 565T634 493Q634 460 625 422T589 350T515 296T391 274H201V0H76V714ZM201 376H384Q405 376 427 382T467 401T497 437T509 494Q509 529 499 552T472 588T433
607T386 612H201V376Z" />
<glyph unicode="Q" glyph-name="Q" horiz-adv-x="760" d="M713 3L652 -65L548 26Q508 3 465 -7T380 -17Q300 -17 237 12T129 93T62 212T38 357Q38 433 61 501T129 620T236 701T380 731Q460 731 523 701T631 620T698 501T722 357Q722 320 716 283T698 209T667 141T621
83L713 3ZM388 165L448 234L535 158Q569 199 583 251T597 357Q597 408 585 457T546 544T479 606T380 629Q323 629 282 606T214 545T176 457T163 357Q163 306 175 257T214 170T281 108T380 85Q400 85 420 89T460 102L388 165Z" />
<glyph unicode="R" glyph-name="R" horiz-adv-x="704" d="M76 714H417Q535 714 594 663T653 521Q653 470 638 437T603 383T564 353T535 341V339Q551 337 569 329T604 304T630 258T641 188Q641 125 650 74T680 0H546Q532 23 530 51T527 105Q527 154 521 189T499
248T456 283T385 294H201V0H76V714ZM201 389H406Q466 389 497 417T528 503Q528 537 518 558T491 592T451 608T404 612H201V389Z" />
<glyph unicode="S" glyph-name="S" horiz-adv-x="648" d="M158 238Q158 197 172 168T211 121T268 94T339 85Q380 85 409 94T456 119T482 153T490 193Q490 234 472 253T431 281Q393 295 343 307T218 340Q172 352 142 371T93 415T68 466T60 521Q60 575 82 614T142
680T226 718T321 731Q377 731 426 717T513 673T573 602T595 503H470Q465 572 423 600T316 629Q294 629 271 625T229 610T198 581T185 536Q185 498 208 477T270 444Q274 443 301 436T363 419T429 402T476 389Q511 378 537 359T580 316T606 263T615 207Q615 147 591
105T526 35T435 -4T331 -17Q270 -17 216 -2T122 44T58 123T33 238H158Z" />
<glyph unicode="T" glyph-name="T" horiz-adv-x="593" d="M8 714H586V606H359V0H234V606H8V714Z" />
<glyph unicode="U" glyph-name="U" horiz-adv-x="722" d="M68 714H193V298Q193 262 196 225T216 159T266 110T361 91Q422 91 455 110T505 158T525 225T529 298V714H654V257Q654 188 633 137T574 52T481 0T361 -17Q295 -17 241 0T149 51T89 137T68 257V714Z" />
<glyph unicode="V" glyph-name="V" horiz-adv-x="611" d="M-5 714H125L304 149H306L489 714H616L372 0H233L-5 714Z" />
<glyph unicode="W" glyph-name="W" horiz-adv-x="944" d="M6 714H133L262 168H264L408 714H536L676 168H678L811 714H938L741 0H614L471 546H469L323 0H194L6 714Z" />
<glyph unicode="X" glyph-name="X" horiz-adv-x="648" d="M14 714H163L325 462L494 714H634L398 370L651 0H499L321 273L140 0H-3L250 370L14 714Z" />
<glyph unicode="Y" glyph-name="Y" horiz-adv-x="648" d="M262 280L-6 714H139L328 394L514 714H654L387 280V0H262V280Z" />
<glyph unicode="Z" glyph-name="Z" horiz-adv-x="630" d="M55 714H598V619L182 108H608V0H23V102L439 606H55V714Z" />
<glyph unicode="[" glyph-name="bracketleft" horiz-adv-x="296" d="M72 731H295V641H180V-101H295V-191H72V731Z" />
<glyph unicode="\" glyph-name="backslash" horiz-adv-x="352" d="M374 -17H265L-22 731H87L374 -17Z" />
<glyph unicode="]" glyph-name="bracketright" horiz-adv-x="296" d="M224 -191H1V-101H116V641H1V731H224V-191Z" />
<glyph unicode="^" glyph-name="asciicircum" horiz-adv-x="600" d="M84 335L264 700H336L516 335H414L300 582L186 335H84Z" />
<glyph unicode="_" glyph-name="underscore" horiz-adv-x="500" d="M0 -125V-75H500V-125H0Z" />
<glyph unicode="`" glyph-name="grave" horiz-adv-x="241" d="M105 731L196 588H113L-29 731H105Z" />
<glyph unicode="a" glyph-name="a" horiz-adv-x="556" d="M493 115Q493 94 498 85T520 76Q525 76 532 76Q539 76 548 78V-1Q542 -3 533 -5T513 -10T493 -13T476 -14Q441 -14 418 0T388 49Q354 16 305 1T209 -14Q174 -14 142 -5T86 23T47 70T32 137Q32 185 49 215T95
262T159 286T231 298Q262 304 290 306T339 315T373 333T386 371Q386 393 376 407T350 428T315 438T279 441Q231 441 200 421T165 359H51Q54 409 75 442T128 495T202 523T286 531Q324 531 361 523T427 497T475 451T493 381V115ZM379 259Q353 242 315 239T239 228Q221
225 204 220T174 205T154 180T146 142Q146 123 157 110T183 90T217 79T251 76Q270 76 292 81T333 98T366 128T379 174V259Z" />
<glyph unicode="b" glyph-name="b" horiz-adv-x="611" d="M63 714H177V450H179Q191 469 208 484T245 509T288 525T333 531Q394 531 439 510T515 451T560 363T575 256Q575 204 562 155T521 69T451 9T352 -14Q326 -14 300 -11T249 3T206 29T173 71H171V0H63V714ZM461
258Q461 293 452 326T425 384T380 425T318 441Q246 441 210 391T173 258Q173 219 182 186T211 128T256 90T318 76Q357 76 384 92T428 133T453 191T461 258Z" />
<glyph unicode="c" glyph-name="c" horiz-adv-x="556" d="M409 344Q402 392 371 416T291 441Q269 441 244 434T198 406T163 349T149 253Q149 221 156 189T180 132T223 92T286 76Q336 76 368 107T409 194H523Q507 93 447 40T286 -14Q225 -14 179 6T100 62T52 147T35
253Q35 311 51 362T99 450T178 509T290 531Q335 531 375 520T447 485T499 427T523 344H409Z" />
<glyph unicode="d" glyph-name="d" horiz-adv-x="611" d="M547 0H439V70H437Q414 25 370 6T277 -14Q216 -14 171 7T95 66T50 153T35 262Q35 332 54 383T104 467T176 515T259 531Q283 531 308 527T356 512T398 487T431 450H433V714H547V0ZM149 253Q149 220 157
188T183 131T228 91T292 76Q330 76 357 92T402 134T428 192T437 259Q437 345 399 393T294 441Q254 441 227 425T182 382T157 322T149 253Z" />
<glyph unicode="e" glyph-name="e" horiz-adv-x="556" d="M415 304Q413 331 404 356T378 399T338 429T285 441Q255 441 231 431T189 402T161 358T149 304H415ZM149 229Q149 199 157 171T183 122T226 89T288 76Q338 76 368 97T414 162H522Q513 120 491 87T438 32T369
-2T288 -14Q227 -14 180 6T101 62T52 148T35 258Q35 313 52 362T102 449T181 509T285 531Q346 531 394 506T475 438T521 342T529 229H149Z" />
<glyph unicode="f" glyph-name="f" horiz-adv-x="315" d="M9 517H94V560Q94 609 106 639T138 686T183 708T237 714Q292 714 317 707V618Q306 621 294 622T264 624Q241 624 225 613T208 570V517H305V432H208V0H94V432H9V517Z" />
<glyph unicode="g" glyph-name="g" horiz-adv-x="593" d="M538 27Q538 -90 473 -147T284 -205Q245 -205 206 -197T134 -170T79 -120T53 -44H167Q172 -68 184 -83T212 -106T249 -117T291 -120Q360 -120 392 -86T424 12V91H422Q398 48 357 24T267 0Q205 0 162 21T90
80T48 167T35 272Q35 324 51 371T97 453T170 510T269 531Q318 531 359 511T422 446H424V517H538V27ZM285 90Q323 90 349 105T392 146T416 204T424 270Q424 303 416 334T392 389T349 427T285 441Q247 441 221 425T179 384T156 326T149 261Q149 229 157 199T181 144T223
105T285 90Z" />
<glyph unicode="h" glyph-name="h" horiz-adv-x="574" d="M60 714H174V449H176Q197 484 238 507T331 531Q416 531 465 487T514 355V0H400V325Q398 386 374 413T299 441Q270 441 247 431T208 402T183 358T174 305V0H60V714Z" />
<glyph unicode="i" glyph-name="i" horiz-adv-x="241" d="M63 714H177V606H63V714ZM63 517H177V0H63V517Z" />
<glyph unicode="j" glyph-name="j" horiz-adv-x="241" d="M63 714H177V606H63V714ZM63 517H177V-44Q177 -121 143 -163T29 -205Q12 -205 1 -204T-22 -201V-111Q-11 -113 -1 -114T17 -115Q48 -115 55 -96T63 -39V517Z" />
<glyph unicode="k" glyph-name="k" horiz-adv-x="537" d="M63 714H177V308L383 517H523L325 327L542 0H403L245 251L177 185V0H63V714Z" />
<glyph unicode="l" glyph-name="l" horiz-adv-x="241" d="M63 714H177V0H63V714Z" />
<glyph unicode="m" glyph-name="m" horiz-adv-x="870" d="M60 517H168V445H171Q184 464 199 480T232 507T275 524T330 531Q377 531 417 510T475 445Q504 485 542 508T637 531Q719 531 764 491T810 357V0H696V302Q696 333 694 358T683 402T654 431T602 441Q544
441 518 405T492 303V0H378V332Q378 386 359 413T287 441Q265 441 245 432T209 406T184 364T174 307V0H60V517Z" />
<glyph unicode="n" glyph-name="n" horiz-adv-x="574" d="M60 517H168V441L170 439Q196 482 238 506T331 531Q416 531 465 487T514 355V0H400V325Q398 386 374 413T299 441Q270 441 247 431T208 402T183 358T174 305V0H60V517Z" />
<glyph unicode="o" glyph-name="o" horiz-adv-x="593" d="M297 -14Q235 -14 187 6T105 63T54 149T36 259Q36 318 53 368T104 454T186 510T297 531Q359 531 407 511T489 454T540 368T558 259Q558 199 541 149T490 63T408 7T297 -14ZM297 76Q335 76 363 92T409 134T435
192T444 259Q444 292 436 325T409 383T363 425T297 441Q259 441 231 425T185 384T159 325T150 259Q150 225 158 193T185 134T231 92T297 76Z" />
<glyph unicode="p" glyph-name="p" horiz-adv-x="611" d="M63 517H171V447H173Q197 492 240 511T333 531Q394 531 439 510T515 451T560 363T575 256Q575 204 562 155T521 69T451 9T352 -14Q327 -14 302 -10T254 5T212 30T179 67H177V-191H63V517ZM461 258Q461
293 452 326T425 384T380 425T318 441Q246 441 210 391T173 258Q173 219 182 186T211 128T256 90T318 76Q357 76 384 92T428 133T453 191T461 258Z" />
<glyph unicode="q" glyph-name="q" horiz-adv-x="611" d="M547 -191H433V67H431Q417 46 398 31T356 5T308 -9T258 -14Q201 -14 159 8T90 68T49 155T35 256Q35 313 50 363T95 450T170 509T277 531Q327 531 370 512T437 447H439V517H547V-191ZM149 258Q149 224 156
192T181 134T226 92T292 76Q366 76 401 126T437 258Q437 343 401 392T292 441Q257 441 230 426T185 385T158 326T149 258Z" />
<glyph unicode="r" glyph-name="r" horiz-adv-x="352" d="M60 517H167V417H169Q174 438 188 458T223 494T269 521T320 531Q340 531 347 530T363 528V418Q351 420 339 421T314 423Q285 423 260 412T215 378T185 322T174 246V0H60V517Z" />
<glyph unicode="s" glyph-name="s" horiz-adv-x="519" d="M146 166Q151 116 184 96T263 76Q279 76 299 78T338 88T367 108T378 140Q378 142 378 154T362 180T324 202T270 217T209 230Q177 237 148 247T95 274T57 317T43 383Q43 425 63 453T115 499T185 524T259
531Q299 531 335 523T401 495T450 446T475 372H356Q348 413 319 427T251 441Q239 441 223 439T192 432T167 416T157 388Q157 367 171 354T209 333T263 318T325 305Q356 298 386 288T439 261T477 218T492 154Q492 108 471 76T417 24T342 -5T261 -14Q212 -14 171
-3T99 30T51 86T32 166H146Z" />
<glyph unicode="t" glyph-name="t" horiz-adv-x="333" d="M8 517H94V672H208V517H311V432H208V156Q208 138 209 125T216 103T233 90T263 85Q275 85 287 85T311 89V1Q292 -1 274 -3T237 -5Q192 -5 165 3T122 28T101 70T94 127V432H8V517Z" />
<glyph unicode="u" glyph-name="u" horiz-adv-x="574" d="M514 0H402V72H400Q379 33 338 10T253 -14Q151 -14 106 36T60 189V517H174V200Q174 132 200 104T273 76Q309 76 333 87T372 116T393 161T400 217V517H514V0Z" />
<glyph unicode="v" glyph-name="v" horiz-adv-x="519" d="M9 517H133L264 120H266L392 517H510L325 0H197L9 517Z" />
<glyph unicode="w" glyph-name="w" horiz-adv-x="778" d="M13 517H134L235 131H237L334 517H449L542 131H544L649 517H765L603 0H486L390 384H388L293 0H173L13 517Z" />
<glyph unicode="x" glyph-name="x" horiz-adv-x="537" d="M199 272L20 517H158L266 358L379 517H511L335 278L533 0H396L265 191L138 0H4L199 272Z" />
<glyph unicode="y" glyph-name="y" horiz-adv-x="519" d="M3 517H128L263 131H265L396 517H515L314 -28Q300 -63 287 -95T254 -151T205 -190T131 -205Q91 -205 52 -199V-103Q66 -105 79 -107T106 -110Q126 -110 139 -105T160 -91T175 -68T186 -38L199 2L3 517Z" />
<glyph unicode="z" glyph-name="z" horiz-adv-x="500" d="M42 517H462V437L166 90H477V0H22V80L308 427H42V517Z" />
<glyph unicode="{" glyph-name="braceleft" horiz-adv-x="296" d="M-4 315Q6 315 22 318T53 329T79 352T90 388V594Q90 629 104 655T138 698T180 723T218 731H309V641H254Q235 641 224 635T207 618T200 595T198 571V376Q198 346 186 326T158 295T124 278T94 271V269Q106
268 123 264T157 249T186 216T198 158V-31Q198 -42 199 -54T207 -77T224 -94T254 -101H309V-191H218Q202 -191 180 -183T138 -158T104 -115T90 -54V144Q90 168 79 184T53 209T22 221T-4 225V315Z" />
<glyph unicode="|" glyph-name="bar" horiz-adv-x="222" d="M60 786H162V-214H60V786Z" />
<glyph unicode="}" glyph-name="braceright" horiz-adv-x="296" d="M300 225Q289 225 273 222T242 210T217 188T206 152V-54Q206 -89 192 -115T158 -158T116 -183T78 -191H-13V-101H42Q61 -101 72 -95T89 -78T96 -55T98 -31V164Q98 194 110 214T138 245T172 262T202
269V271Q190 272 173 276T139 291T110 324T98 382V571Q98 582 97 594T89 617T72 634T42 641H-13V731H78Q94 731 116 723T158 698T192 655T206 594V396Q206 372 216 356T242 331T273 319T300 315V225Z" />
<glyph unicode="~" glyph-name="asciitilde" horiz-adv-x="600" d="M531 254Q520 238 508 223T481 195T448 176T406 168Q378 168 354 177T304 201Q280 215 252 225T189 236Q172 236 160 230T137 214T119 192T105 168L69 252Q77 268 88 283T115 311T149 330T194
338Q220 338 248 329T305 306Q333 294 360 282T407 270Q422 270 434 276T457 292T477 314T495 338L531 254Z" />
<glyph unicode="&#x80;" glyph-name="Euro" horiz-adv-x="556" d="M567 652L521 561Q457 625 381 625Q314 625 269 572Q232 526 218 455H482L456 391H211Q210 381 210 354Q210 330 211 323H442L417 260H216Q228 180 267 133Q312 76 389 76Q437 76 472 92Q502 107
540 142V31Q473 -13 389 -13Q255 -13 180 69Q115 139 99 260H22L49 323H94Q92 337 92 355Q92 369 94 391H22L48 455H101Q126 570 192 637Q268 714 389 714Q477 714 567 652Z" />
</font>
</defs>
</svg>
